<svg xmlns="http://www.w3.org/2000/svg" viewBox="0 0 100 100">
  <defs>
    <linearGradient id="bgGradient" x1="0%" y1="0%" x2="100%" y2="100%">
      <stop offset="0%" style="stop-color:#3b82f6;stop-opacity:1" />
      <stop offset="100%" style="stop-color:#6366f1;stop-opacity:1" />
    </linearGradient>
  </defs>
  
  <!-- Background -->
  <rect width="100" height="100" rx="15" fill="url(#bgGradient)" />
  
  <!-- Letter J -->
  <path d="M 25 20 L 25 60 Q 25 70 35 70 L 55 70 Q 65 70 65 60 L 55 60 L 55 65 Q 55 63 52 63 L 38 63 Q 35 63 35 60 L 35 20 Z" fill="#ffffff" opacity="0.95"/>
  
  <!-- Letter C -->
  <path d="M 45 20 Q 30 20 30 40 Q 30 60 45 60 L 65 60 L 65 50 L 45 50 Q 40 50 40 40 Q 40 30 45 30 L 65 30 L 65 20 Z" fill="#ffffff" opacity="0.95"/>
  
  <!-- Portfolio icon - briefcase -->
  <path d="M 30 75 L 30 80 L 70 80 L 70 75 L 30 75 M 25 75 L 25 60 L 75 60 L 75 75 L 70 75 L 70 73 L 30 73 L 30 75 L 25 75 M 37 68 L 37 75 L 43 75 L 43 68 L 45 68 L 45 62 L 43 62 L 43 65 L 37 65 L 37 62 L 35 62 L 35 68 L 37 68 M 57 68 L 57 75 L 63 75 L 63 68 L 65 68 L 65 62 L 63 62 L 63 65 L 57 65 L 57 62 L 55 62 L 55 68 L 57 68 Z" fill="#fbbf24" opacity="0.9" stroke="#ffffff" stroke-width="1.5"/>
</svg>
